#N canvas 2403 131 670 513 10;
#X obj 139 115 nbx 3 14 0 200 0 0 empty empty BPM 7 -8 0 10 -262144
-1 -1 0 256;
#X obj 250 199 metro, f 8;
#X obj 251 221 bng 15 250 50 0 empty empty empty 17 7 0 10 -262144
-1 -1;
#X obj 107 114 tgl 15 0 empty empty On 0 -5 0 10 -262144 -1 -1 0 1
;
#X obj 293 112 /, f 5;
#X msg 293 88 60000;
#X obj 233 286 route 1 2 3 4;
#X obj 251 262 + 1;
#X obj 250 240 i 1;
#X msg 219 219 1;
#X obj 188 263 select 5;
#X obj 334 340 +;
#X obj 372 340 +;
#X obj 418 342 +;
#X obj 462 341 +;
#X obj 333 259 i;
#X obj 233 308 t b b, f 2;
#X obj 251 308 t b b, f 2;
#X obj 101 159 nbx 3 14 -12 12 0 0 empty empty empty 0 -8 0 10 -262144
-1 -1 0 256;
#X obj 138 159 nbx 3 14 -12 12 0 0 empty empty empty 0 -8 0 10 -262144
-1 -1 0 256;
#X obj 175 159 nbx 3 14 -12 12 0 0 empty empty empty 0 -8 0 10 -262144
-1 -1 0 256;
#X obj 212 159 nbx 3 14 -12 12 0 0 empty empty empty 0 -8 0 10 -262144
-1 -1 0 256;
#X obj 343 318 i;
#X obj 377 317 i;
#X obj 414 317 i;
#X obj 461 317 i;
#X obj 271 309 t b b, f 2;
#X obj 290 309 t b b, f 2;
#X obj 361 260 i;
#X obj 385 260 i;
#X obj 413 260 i;
#X obj 355 423 print;
#X msg 218 199 1;
#X msg 414 196 12;
#X obj 368 163 / 1;
#X msg 393 74 2;
#X msg 366 74 1;
#X msg 366 93 4;
#X msg 393 93 8;
#X text 406 179 MIDINOTE;
#X obj 14 192 inlet;
#X text 7 171 MIDI-IN;
#X obj 281 386 outlet;
#X obj 201 104 bng 15 250 50 0 empty empty 1 -7 7 0 10 -262144 -1 -1
;
#X obj 225 106 bng 15 250 50 0 empty empty 2 -7 7 0 10 -262144 -1 -1
;
#X obj 201 124 bng 15 250 50 0 empty empty 4 -7 7 0 10 -262144 -1 -1
;
#X obj 227 122 bng 15 250 50 0 empty empty 8 -7 7 0 10 -262144 -1 -1
;
#X obj 546 52 inlet;
#X text 587 54 BPM;
#X floatatom 539 131 5 0 0 0 - - -;
#X obj 124 39 inlet;
#X text 159 38 ON;
#X obj 366 125 t b f;
#X obj 293 63 t b f;
#X obj 264 173 t f b;
#X connect 0 0 53 0;
#X connect 1 0 2 0;
#X connect 2 0 8 0;
#X connect 3 0 54 0;
#X connect 4 0 34 0;
#X connect 5 0 4 0;
#X connect 6 0 16 0;
#X connect 6 1 17 0;
#X connect 6 2 26 0;
#X connect 6 3 27 0;
#X connect 7 0 8 1;
#X connect 8 0 7 0;
#X connect 8 0 10 0;
#X connect 9 0 8 0;
#X connect 10 0 9 0;
#X connect 10 1 6 0;
#X connect 11 0 42 0;
#X connect 12 0 42 0;
#X connect 13 0 42 0;
#X connect 14 0 42 0;
#X connect 15 0 11 0;
#X connect 16 0 22 0;
#X connect 16 1 15 0;
#X connect 17 0 23 0;
#X connect 17 1 28 0;
#X connect 18 0 22 1;
#X connect 19 0 23 1;
#X connect 20 0 24 1;
#X connect 21 0 25 1;
#X connect 22 0 11 1;
#X connect 23 0 12 1;
#X connect 24 0 13 1;
#X connect 25 0 14 1;
#X connect 26 0 24 0;
#X connect 26 1 29 0;
#X connect 27 0 25 0;
#X connect 27 1 30 0;
#X connect 28 0 12 0;
#X connect 29 0 13 0;
#X connect 30 0 14 0;
#X connect 32 0 8 1;
#X connect 34 0 1 1;
#X connect 35 0 52 0;
#X connect 36 0 52 0;
#X connect 37 0 52 0;
#X connect 38 0 52 0;
#X connect 40 0 15 1;
#X connect 40 0 28 1;
#X connect 40 0 29 1;
#X connect 40 0 30 1;
#X connect 43 0 36 0;
#X connect 44 0 35 0;
#X connect 45 0 37 0;
#X connect 46 0 38 0;
#X connect 47 0 0 0;
#X connect 47 0 49 0;
#X connect 50 0 3 0;
#X connect 52 0 34 0;
#X connect 52 1 34 1;
#X connect 53 0 5 0;
#X connect 53 1 4 1;
#X connect 54 0 1 0;
#X connect 54 1 32 0;
#X coords 0 -1 1 1 150 80 2 100 100;
