#N canvas 2243 61 763 593 10;
#X obj 11 26 inlet~;
#X obj 335 60 inlet;
#X obj 9 458 outlet~;
#X text 372 59 Velocity;
#X obj 9 365 *~;
#X obj 284 325 line~;
#X obj 337 82 > 0;
#X obj 335 104 select 1, f 35;
#X obj 303 283 spigot;
#X obj 336 254 tgl 15 0 empty empty empty 17 7 0 10 -262144 -1 -1 0
1;
#X obj 310 132 t b b b;
#X obj 101 101 cnv 15 98 108 empty empty empty 35 5 0 14 -204786 -13381
0;
#X obj 106 115 vsl 15 90 0 2000 0 0 empty empty A 5 -9 0 10 -4034 -13381
-13381 0 1;
#X obj 130 115 vsl 15 90 0 2000 0 0 empty empty D 5 -9 0 10 -4034 -13381
-13381 0 1;
#X obj 154 115 vsl 15 90 0 100 0 0 empty empty S 5 -9 0 10 -4034 -13381
-13381 8900 1;
#X obj 177 115 vsl 15 90 0 2000 0 0 empty empty R 5 -9 0 10 -4034 -13381
-13381 0 1;
#X obj 154 218 / 100;
#X obj 67 318 pack f f;
#X obj 46 237 t b b, f 8;
#X obj 91 264 f;
#X obj 149 437 pack f f;
#X obj 149 404 f;
#X obj 194 404 f;
#X obj 149 373 t b b, f 8;
#X obj 305 176 delay;
#X obj 467 300 pack f f;
#X obj 467 247 t b b, f 8;
#X obj 512 274 f;
#X obj 467 276 f 0;
#X obj 376 186 i 1;
#X obj 425 197 i 0;
#X obj 457 161 bng 15 250 50 0 empty empty empty 17 7 0 10 -262144
-1 -1;
#X obj 122 35 loadbang;
#X msg 141 67 100;
#X floatatom 241 62 5 0 0 0 - - -;
#X obj 254 93 / 127;
#X floatatom 241 124 5 0 0 0 - - -;
#X obj 30 267 float 1;
#X obj 18 309 *;
#X obj 184 264 *;
#X connect 0 0 4 0;
#X connect 1 0 6 0;
#X connect 1 0 34 0;
#X connect 1 0 35 0;
#X connect 4 0 2 0;
#X connect 5 0 4 1;
#X connect 6 0 7 0;
#X connect 7 0 10 0;
#X connect 7 1 26 0;
#X connect 7 1 31 0;
#X connect 8 0 5 0;
#X connect 9 0 8 1;
#X connect 10 0 24 0;
#X connect 10 1 18 0;
#X connect 10 2 29 0;
#X connect 12 0 19 1;
#X connect 13 0 22 1;
#X connect 13 0 24 1;
#X connect 14 0 16 0;
#X connect 15 0 27 1;
#X connect 16 0 39 1;
#X connect 17 0 8 0;
#X connect 18 0 37 0;
#X connect 18 1 19 0;
#X connect 19 0 17 1;
#X connect 20 0 8 0;
#X connect 21 0 20 0;
#X connect 22 0 20 1;
#X connect 23 0 21 0;
#X connect 23 1 22 0;
#X connect 24 0 23 0;
#X connect 25 0 5 0;
#X connect 26 0 28 0;
#X connect 26 1 27 0;
#X connect 27 0 25 1;
#X connect 28 0 25 0;
#X connect 29 0 9 0;
#X connect 30 0 9 0;
#X connect 31 0 30 0;
#X connect 32 0 33 0;
#X connect 33 0 14 0;
#X connect 35 0 36 0;
#X connect 35 0 39 0;
#X connect 35 0 38 0;
#X connect 37 0 38 1;
#X connect 38 0 17 0;
#X connect 39 0 21 1;
#X coords 0 -1 1 1 100 110 2 100 100;
