#N canvas 2144 310 906 508 10;
#X obj 21 21 cnv 15 148 148 empty empty OSC 30 15 0 14 -204786 -13381
0;
#X obj 210 59 mtof;
#N canvas 589 469 450 300 Saw 0;
#X obj 24 45 phasor~;
#X obj 24 67 *~ 2;
#X obj 23 90 -~ 1;
#X obj 20 15 inlet;
#X obj 23 116 outlet~;
#X obj 132 16 inlet;
#X msg 114 55 0.5;
#X connect 0 0 1 0;
#X connect 1 0 2 0;
#X connect 2 0 4 0;
#X connect 3 0 0 0;
#X connect 5 0 6 0;
#X connect 6 0 0 1;
#X restore 210 95 pd Saw;
#N canvas 2451 135 450 410 Square 0;
#X obj 20 59 phasor~;
#X obj 20 15 inlet;
#X obj 21 183 outlet~;
#X obj 20 132 *~ 2;
#X obj 21 157 -~ 1;
#X obj 93 16 inlet;
#X msg 95 39 0.5;
#X obj 153 14 inlet;
#X obj 19 103 expr~ $v1 > $v2;
#X connect 0 0 8 0;
#X connect 1 0 0 0;
#X connect 3 0 4 0;
#X connect 4 0 2 0;
#X connect 5 0 6 0;
#X connect 6 0 0 1;
#X connect 7 0 8 1;
#X connect 8 0 3 0;
#X restore 260 94 pd Square;
#X obj 565 272 tabwrite~ osc;
#N canvas 0 50 450 250 (subpatch) 0;
#X array osc 100 float 5;
#A 0 0 0 0 0 0 0 0 0 0 0 0 0 0 0 0 0 0 0 0 0 0 0 0 0 0 0 0 0 0 0 0
0 0 0 0 0 0 0 0 0 0 0 0 0 0 0 0 0 0 0 0 0 0 0 0 0 0 0 0 0 0 0 0 0 0
0 0 0 0 0 0 0 0 0 0 0 0 0 0 0 0 0 0 0 0 0 0 0 0 0 0 0 0 0 0 0 0 0 0
0;
#X coords 0 1.1 99 -1.1 100 70 1 0 0;
#X restore 57 70 graph;
#X obj 536 251 bng 15 250 50 0 empty empty empty 17 7 0 10 -262144
-1 -1;
#X obj 141 31 vradio 12 1 0 2 empty empty empty 0 -8 0 10 -4034 -13381
-13381 0;
#X obj 233 215 route 1;
#X text 113 28 Saw;
#X text 98 40 Square;
#X obj 261 117 *~;
#X obj 209 118 *~;
#X obj 233 273 i 1;
#X obj 233 245 t b b;
#X obj 264 273 i 0;
#X obj 302 270 i 1;
#X obj 302 242 t b b;
#X obj 333 270 i 0;
#N canvas 413 590 450 300 SawDis 0;
#X obj 24 45 phasor~;
#X obj 24 67 *~ 2;
#X obj 23 90 -~ 1;
#X obj 20 15 inlet;
#X obj 23 116 outlet~;
#X obj 132 16 inlet;
#X msg 114 55 0.5;
#X connect 0 0 1 0;
#X connect 1 0 2 0;
#X connect 2 0 4 0;
#X connect 3 0 0 0;
#X connect 5 0 6 0;
#X connect 6 0 0 1;
#X restore 563 190 pd SawDis;
#N canvas 2451 135 450 410 SquareDis 0;
#X obj 20 59 phasor~;
#X obj 20 15 inlet;
#X obj 21 183 outlet~;
#X obj 20 132 *~ 2;
#X obj 21 157 -~ 1;
#X obj 93 16 inlet;
#X msg 95 39 0.5;
#X obj 153 14 inlet;
#X obj 19 103 expr~ $v1 > $v2;
#X connect 0 0 8 0;
#X connect 1 0 0 0;
#X connect 3 0 4 0;
#X connect 4 0 2 0;
#X connect 5 0 6 0;
#X connect 6 0 0 1;
#X connect 7 0 6 0;
#X connect 7 0 8 1;
#X connect 8 0 3 0;
#X restore 631 191 pd SquareDis;
#X obj 563 228 *~;
#X obj 630 228 *~;
#X msg 560 134 441;
#X obj 88 413 outlet~;
#X obj 33 148 hsl 128 15 0.03 0.97 0 0 empty empty PWM -2 -8 0 10 -4034
-13381 -13381 6350 1;
#X msg 24 267 0.5;
#X obj 8 224 loadbang;
#X obj 30 109 bng 15 250 50 0 empty empty empty 17 7 0 10 -4034 -13381
-13381;
#X obj 235 360 select 1;
#X obj 377 411 spigot;
#X obj 317 407 i 1;
#X obj 348 350 i 0;
#X obj 210 19 inlet;
#X msg 36 334 0, f 2;
#X obj 85 280 t b b b;
#X connect 1 0 2 0;
#X connect 1 0 3 0;
#X connect 2 0 12 0;
#X connect 3 0 11 0;
#X connect 6 0 4 0;
#X connect 7 0 8 0;
#X connect 7 0 6 0;
#X connect 7 0 2 1;
#X connect 7 0 3 1;
#X connect 7 0 20 1;
#X connect 7 0 19 1;
#X connect 8 0 14 0;
#X connect 8 1 17 0;
#X connect 11 0 24 0;
#X connect 12 0 24 0;
#X connect 13 0 11 1;
#X connect 13 0 22 1;
#X connect 13 0 29 0;
#X connect 14 0 13 0;
#X connect 14 1 15 0;
#X connect 15 0 12 1;
#X connect 15 0 21 1;
#X connect 16 0 12 1;
#X connect 16 0 21 1;
#X connect 17 0 16 0;
#X connect 17 1 18 0;
#X connect 18 0 11 1;
#X connect 18 0 22 1;
#X connect 18 0 29 0;
#X connect 19 0 21 0;
#X connect 20 0 22 0;
#X connect 21 0 4 0;
#X connect 22 0 4 0;
#X connect 23 0 19 0;
#X connect 23 0 20 0;
#X connect 25 0 3 2;
#X connect 25 0 20 2;
#X connect 25 0 30 0;
#X connect 26 0 25 0;
#X connect 27 0 26 0;
#X connect 27 0 35 0;
#X connect 28 0 26 0;
#X connect 29 0 31 0;
#X connect 29 1 32 0;
#X connect 30 0 6 0;
#X connect 31 0 30 1;
#X connect 32 0 30 1;
#X connect 33 0 1 0;
#X connect 33 0 23 0;
#X connect 34 0 7 0;
#X connect 35 0 6 0;
#X connect 35 1 19 1;
#X connect 35 1 23 0;
#X connect 35 2 34 0;
#X coords 0 -1 1 1 150 150 2 20 20;
