#N canvas 2038 163 850 782 12;
#X obj 104 245 kick;
#X obj 207 245 clap;
#X obj 309 245 snare;
#X obj 412 246 hat;
#X obj 245 109 bng 15 250 50 0 empty empty empty 17 7 0 10 -262144
-1 -1;
#X obj 286 109 bng 15 250 50 0 empty empty empty 17 7 0 10 -262144
-1 -1;
#X obj 327 109 bng 15 250 50 0 empty empty empty 17 7 0 10 -262144
-1 -1;
#X obj 351 109 bng 15 250 50 0 empty empty empty 17 7 0 10 -262144
-1 -1;
#N canvas 158 248 691 482 seq 0;
#X floatatom 142 126 5 0 200 2 BPM - -;
#X obj 200 139 /, f 7;
#X msg 200 114 60000;
#X obj 200 89 t b i, f 7;
#X obj 112 232 metro, f 13;
#X obj 112 344 outlet;
#X obj 172 344 outlet;
#X obj 233 346 outlet;
#X obj 570 372 outlet;
#X obj 112 259 i 1, f 5;
#X obj 144 285 + 1;
#X obj 112 128 tgl 15 0 empty empty empty 17 7 0 10 -262144 -1 -1 0
1;
#X obj 538 344 t b b;
#X msg 144 206 1;
#X obj 112 168 t i b;
#X obj 112 312 route 1 2 3 4 5 6 7 8, f 70;
#X obj 294 347 outlet;
#X obj 355 345 outlet;
#X obj 416 347 outlet;
#X obj 477 347 outlet;
#X obj 200 164 / 2;
#X obj 98 46 inlet;
#X obj 181 32 inlet;
#X text 92 27 Toggle;
#X text 185 13 BPM;
#X connect 0 0 3 0;
#X connect 1 0 20 0;
#X connect 2 0 1 0;
#X connect 3 0 2 0;
#X connect 3 1 1 1;
#X connect 4 0 9 0;
#X connect 9 0 10 0;
#X connect 9 0 15 0;
#X connect 10 0 9 1;
#X connect 11 0 14 0;
#X connect 12 0 13 0;
#X connect 12 1 8 0;
#X connect 13 0 9 1;
#X connect 14 0 4 0;
#X connect 14 1 13 0;
#X connect 15 0 5 0;
#X connect 15 1 6 0;
#X connect 15 2 7 0;
#X connect 15 3 16 0;
#X connect 15 4 17 0;
#X connect 15 5 18 0;
#X connect 15 6 19 0;
#X connect 15 7 12 0;
#X connect 20 0 4 1;
#X connect 21 0 11 0;
#X connect 22 0 0 0;
#X coords 0 -1 1 1 85 60 2 100 100;
#X restore 103 104 pd seq;
#N canvas 85 186 734 528 spigs 0;
#X obj 294 43 inlet;
#X obj 376 43 inlet;
#X obj 456 42 inlet;
#X obj 527 43 inlet;
#X obj 145 106 tgl 15 0 empty empty empty 17 7 0 10 -262144 -1 -1 0
1;
#X obj 145 129 tgl 15 0 empty empty empty 17 7 0 10 -262144 -1 -1 0
1;
#X obj 145 153 tgl 15 0 empty empty empty 17 7 0 10 -262144 -1 -1 0
1;
#X obj 145 177 tgl 15 0 empty empty empty 17 7 0 10 -262144 -1 -1 0
1;
#X obj 165 106 tgl 15 0 empty empty empty 17 7 0 10 -262144 -1 -1 0
1;
#X obj 165 129 tgl 15 0 empty empty empty 17 7 0 10 -262144 -1 -1 0
1;
#X obj 165 153 tgl 15 0 empty empty empty 17 7 0 10 -262144 -1 -1 0
1;
#X obj 165 177 tgl 15 0 empty empty empty 17 7 0 10 -262144 -1 -1 0
1;
#X obj 186 106 tgl 15 0 empty empty empty 17 7 0 10 -262144 -1 -1 0
1;
#X obj 186 129 tgl 15 0 empty empty empty 17 7 0 10 -262144 -1 -1 0
1;
#X obj 186 153 tgl 15 0 empty empty empty 17 7 0 10 -262144 -1 -1 0
1;
#X obj 186 177 tgl 15 0 empty empty empty 17 7 0 10 -262144 -1 -1 0
1;
#X obj 206 106 tgl 15 0 empty empty empty 17 7 0 10 -262144 -1 -1 0
1;
#X obj 206 129 tgl 15 0 empty empty empty 17 7 0 10 -262144 -1 -1 0
1;
#X obj 206 153 tgl 15 0 empty empty empty 17 7 0 10 -262144 -1 -1 0
1;
#X obj 206 177 tgl 15 0 empty empty empty 17 7 0 10 -262144 -1 -1 0
1;
#X text 105 104 Kick;
#X text 105 128 Clap;
#X text 101 151 Snare;
#X text 110 173 Hat;
#X obj 289 94 spigot;
#X obj 290 132 spigot;
#X obj 288 165 spigot;
#X obj 289 203 spigot;
#X obj 372 95 spigot;
#X obj 373 133 spigot;
#X obj 371 166 spigot;
#X obj 372 204 spigot;
#X obj 458 93 spigot;
#X obj 459 131 spigot;
#X obj 457 164 spigot;
#X obj 458 202 spigot;
#X obj 526 91 spigot;
#X obj 527 129 spigot;
#X obj 525 162 spigot;
#X obj 526 200 spigot;
#X obj 289 268 outlet;
#X obj 370 267 outlet;
#X obj 459 267 outlet;
#X obj 534 271 outlet;
#X connect 0 0 24 0;
#X connect 0 0 25 0;
#X connect 0 0 26 0;
#X connect 0 0 27 0;
#X connect 1 0 28 0;
#X connect 1 0 29 0;
#X connect 1 0 30 0;
#X connect 1 0 31 0;
#X connect 2 0 32 0;
#X connect 2 0 33 0;
#X connect 2 0 34 0;
#X connect 2 0 35 0;
#X connect 3 0 36 0;
#X connect 3 0 37 0;
#X connect 3 0 38 0;
#X connect 3 0 39 0;
#X connect 4 0 24 1;
#X connect 5 0 25 1;
#X connect 6 0 26 1;
#X connect 7 0 27 1;
#X connect 8 0 28 1;
#X connect 9 0 29 1;
#X connect 10 0 30 1;
#X connect 11 0 31 1;
#X connect 12 0 32 1;
#X connect 13 0 33 1;
#X connect 14 0 34 1;
#X connect 15 0 35 1;
#X connect 16 0 36 1;
#X connect 17 0 37 1;
#X connect 18 0 38 1;
#X connect 19 0 39 1;
#X connect 24 0 40 0;
#X connect 25 0 41 0;
#X connect 26 0 42 0;
#X connect 27 0 43 0;
#X connect 28 0 40 0;
#X connect 29 0 41 0;
#X connect 30 0 42 0;
#X connect 31 0 43 0;
#X connect 32 0 40 0;
#X connect 33 0 41 0;
#X connect 34 0 42 0;
#X connect 35 0 43 0;
#X connect 36 0 40 0;
#X connect 37 0 41 0;
#X connect 38 0 42 0;
#X connect 39 0 43 0;
#X coords 0 -1 1 1 130 100 2 100 100;
#X restore 245 130 pd spigs;
#X f 12;
#N canvas 122 182 734 528 spigs 0;
#X obj 294 43 inlet;
#X obj 376 43 inlet;
#X obj 456 42 inlet;
#X obj 527 43 inlet;
#X obj 105 106 tgl 15 0 empty empty empty 17 7 0 10 -262144 -1 -1 0
1;
#X obj 105 129 tgl 15 0 empty empty empty 17 7 0 10 -262144 -1 -1 0
1;
#X obj 105 153 tgl 15 0 empty empty empty 17 7 0 10 -262144 -1 -1 0
1;
#X obj 105 177 tgl 15 0 empty empty empty 17 7 0 10 -262144 -1 -1 0
1;
#X obj 125 106 tgl 15 0 empty empty empty 17 7 0 10 -262144 -1 -1 0
1;
#X obj 125 129 tgl 15 0 empty empty empty 17 7 0 10 -262144 -1 -1 0
1;
#X obj 125 153 tgl 15 0 empty empty empty 17 7 0 10 -262144 -1 -1 0
1;
#X obj 125 177 tgl 15 0 empty empty empty 17 7 0 10 -262144 -1 -1 0
1;
#X obj 146 106 tgl 15 0 empty empty empty 17 7 0 10 -262144 -1 -1 0
1;
#X obj 146 129 tgl 15 0 empty empty empty 17 7 0 10 -262144 -1 -1 0
1;
#X obj 146 153 tgl 15 0 empty empty empty 17 7 0 10 -262144 -1 -1 0
1;
#X obj 146 177 tgl 15 0 empty empty empty 17 7 0 10 -262144 -1 -1 0
1;
#X obj 166 106 tgl 15 0 empty empty empty 17 7 0 10 -262144 -1 -1 0
1;
#X obj 166 129 tgl 15 0 empty empty empty 17 7 0 10 -262144 -1 -1 0
1;
#X obj 166 153 tgl 15 0 empty empty empty 17 7 0 10 -262144 -1 -1 0
1;
#X obj 166 177 tgl 15 0 empty empty empty 17 7 0 10 -262144 -1 -1 0
1;
#X obj 289 94 spigot;
#X obj 290 132 spigot;
#X obj 288 165 spigot;
#X obj 289 203 spigot;
#X obj 372 95 spigot;
#X obj 373 133 spigot;
#X obj 371 166 spigot;
#X obj 372 204 spigot;
#X obj 458 93 spigot;
#X obj 459 131 spigot;
#X obj 457 164 spigot;
#X obj 458 202 spigot;
#X obj 526 91 spigot;
#X obj 527 129 spigot;
#X obj 525 162 spigot;
#X obj 526 200 spigot;
#X obj 289 268 outlet;
#X obj 370 267 outlet;
#X obj 459 267 outlet;
#X obj 534 271 outlet;
#X connect 0 0 20 0;
#X connect 0 0 21 0;
#X connect 0 0 22 0;
#X connect 0 0 23 0;
#X connect 1 0 24 0;
#X connect 1 0 25 0;
#X connect 1 0 26 0;
#X connect 1 0 27 0;
#X connect 2 0 28 0;
#X connect 2 0 29 0;
#X connect 2 0 30 0;
#X connect 2 0 31 0;
#X connect 3 0 32 0;
#X connect 3 0 33 0;
#X connect 3 0 34 0;
#X connect 3 0 35 0;
#X connect 4 0 20 1;
#X connect 5 0 21 1;
#X connect 6 0 22 1;
#X connect 7 0 23 1;
#X connect 8 0 24 1;
#X connect 9 0 25 1;
#X connect 10 0 26 1;
#X connect 11 0 27 1;
#X connect 12 0 28 1;
#X connect 13 0 29 1;
#X connect 14 0 30 1;
#X connect 15 0 31 1;
#X connect 16 0 32 1;
#X connect 17 0 33 1;
#X connect 18 0 34 1;
#X connect 19 0 35 1;
#X connect 20 0 36 0;
#X connect 21 0 37 0;
#X connect 22 0 38 0;
#X connect 23 0 39 0;
#X connect 24 0 36 0;
#X connect 25 0 37 0;
#X connect 26 0 38 0;
#X connect 27 0 39 0;
#X connect 28 0 36 0;
#X connect 29 0 37 0;
#X connect 30 0 38 0;
#X connect 31 0 39 0;
#X connect 32 0 36 0;
#X connect 33 0 37 0;
#X connect 34 0 38 0;
#X connect 35 0 39 0;
#X coords 0 -1 1 1 90 100 2 100 100;
#X restore 375 130 pd spigs;
#X f 12;
#X obj 375 110 bng 15 250 50 0 empty empty empty 17 7 0 10 -262144
-1 -1;
#X obj 402 110 bng 15 250 50 0 empty empty empty 17 7 0 10 -262144
-1 -1;
#X obj 432 110 bng 15 250 50 0 empty empty empty 17 7 0 10 -262144
-1 -1;
#X obj 458 111 bng 15 250 50 0 empty empty empty 17 7 0 10 -262144
-1 -1;
#X obj 213 489 outlet~;
#X obj 76 47 inlet;
#X obj 145 43 inlet;
#X connect 0 0 15 0;
#X connect 1 0 15 0;
#X connect 2 0 15 0;
#X connect 3 0 15 0;
#X connect 4 0 9 0;
#X connect 5 0 9 1;
#X connect 6 0 9 2;
#X connect 7 0 9 3;
#X connect 8 0 4 0;
#X connect 8 1 5 0;
#X connect 8 2 6 0;
#X connect 8 3 7 0;
#X connect 8 4 11 0;
#X connect 8 5 12 0;
#X connect 8 6 13 0;
#X connect 8 7 14 0;
#X connect 9 0 0 0;
#X connect 9 1 1 0;
#X connect 9 2 2 0;
#X connect 9 3 3 0;
#X connect 10 0 0 0;
#X connect 10 1 1 0;
#X connect 10 2 2 0;
#X connect 10 3 3 0;
#X connect 11 0 10 0;
#X connect 12 0 10 1;
#X connect 13 0 10 2;
#X connect 14 0 10 3;
#X connect 16 0 8 0;
#X connect 17 0 8 1;
#X coords 0 -1 1 1 420 210 2 100 100;
